<svg xmlns="http://www.w3.org/2000/svg" aria-hidden="true" role="img" width="32" height="32" preserveAspectRatio="xMidYMid meet" viewBox="0 0 256 256">
  <style>
    .a {
      fill: #333;
    }

    @media (prefers-color-scheme: dark) {
      .a {
        fill: #eee;
      }
    }
  </style>
  <g class="a" fill="currentColor"><path d="m240 104l-112 64l-112-64l112-64Z" opacity="0.2"/><path d="m12 111l112 64a8 8 0 0 0 7.94 0l112-64a8 8 0 0 0 0-13.9l-112-64a8 8 0 0 0-7.94 0l-112 64a8 8 0 0 0 0 13.9m116-61.79L223.87 104L128 158.79L32.13 104ZM247 140a8 8 0 0 1-3 11l-112 64a8 8 0 0 1-7.94 0L12 151a8 8 0 1 1 8-13.95l108 61.74l108-61.74a8 8 0 0 1 11 2.95"/></g>
</svg>